<?xml version="1.0" encoding="utf-8"?>
<!-- Generator: Adobe Illustrator 24.1.1, SVG Export Plug-In . SVG Version: 6.00 Build 0)  -->
<svg version="1.1" id="Layer_1" xmlns="http://www.w3.org/2000/svg" xmlns:xlink="http://www.w3.org/1999/xlink" x="0px" y="0px"
	 viewBox="0 0 154.82 28.2" style="enable-background:new 0 0 154.82 28.2;" xml:space="preserve">
<style type="text/css">
	.st0{fill:#D3C2B0;stroke:#625E55;stroke-width:0.25;stroke-miterlimit:10;}
	.st1{fill:#D3C2B0;stroke:#625E55;stroke-width:0.25;}
</style>
<g>
	<g>
		<path id="SS_1_" class="st0" d="M0.21,19.55c0.11-0.71,0.34-1,0.77-1.57l0-0.01l2.45,1.29c0.52,0.27,1.09,0.41,1.68,0.41
			l7.36-0.05c1.25,0,2.27-1.02,2.27-2.27c0-1.25-1.02-2.27-2.27-2.27l-0.95,0.06c-3.54,0-6.4-2.91-6.3-6.47
			c0.09-3.47,3.13-6.14,6.6-6.14l138.8,0c0,0,0,0,0.01,0c0.6-0.14,1.39-0.4,2.22-0.92c0.38-0.24,0.47-0.33,0.76-0.54
			c0.26-0.19,0.35-0.19,0.45-0.02c0.2,0.3,0.26,0.51,0.43,1.05c0.27,0.9,0.19,1.43,0.18,1.89c-0.01,0.23-0.27,0.25-0.56,0.26
			l-142.97,0c-2.28,0-4.3,2.02-4.3,4.5v0.09c0,2.57,2.06,4.63,4.61,4.63l1.16,0c2.14,0,3.87,1.73,3.87,3.87v0.07
			c0,2.2-1.77,3.97-3.95,3.97c-3.7,0-9.95,0-12.14,0C0.05,21.38,0.1,20.29,0.21,19.55z"/>
		<path id="SS" class="st0" d="M154.06,4.81H11.51c-2.24,0-4.06,1.82-4.06,4.06v0.06c0,2.21,1.79,3.99,3.99,3.99h0.92
			c2.38,0,4.52,1.74,4.73,4.11c0.23,2.67-1.87,4.92-4.5,4.92L0.77,21.9c-0.38,0-0.68,0.32-0.65,0.69c0.04,0.46,0.03,0.77,0.14,1.26
			c0.1,0.46,0.2,0.68,0.33,1.08c0.11,0.34,0.52,0.48,0.81,0.26c0.34-0.25,0.7-0.51,1.21-0.75c0.79-0.37,1.51-0.58,2.09-0.7
			c0,0,0.01,0,0.01,0l7.83-0.02c3.45,0,6.24-2.8,6.24-6.24s-2.8-6.24-6.24-6.24l-1.02,0.02c-1.39,0-2.5-1.16-2.42-2.56
			c0.07-1.24,1.2-2.16,2.44-2.16l137.57,0c0.69,0.01,1.83,0.12,3.06,0.7c0.49,0.23,0.87,0.59,1.2,0.93
			c0.23,0.24,0.63,0.14,0.74-0.17c0.15-0.39,0.37-1.03,0.47-1.46c0.11-0.51,0.12-0.86,0.09-1.17
			C154.65,5.05,154.38,4.81,154.06,4.81z"/>
	</g>
	<path class="st0" d="M17.16,2.53V2.18c0-0.97,0.67-1.88,1.63-2.03c1.22-0.2,2.28,0.74,2.28,1.93v19.76
		c0.03,0.16,0.18,0.26,0.32,0.25c0.12-0.01,0.23-0.1,0.26-0.23c0-0.57-0.01-1-0.01-1.54c-0.01-1.64,1.22-3.12,2.86-3.2
		c1.74-0.09,3.18,1.3,3.18,3.02l-0.02,7.37c0,0.29-0.23,0.54-0.52,0.54c-0.37,0.01-0.83-0.01-1.33-0.12
		c-0.24-0.05-1.3-0.35-1.4-0.59c-0.18-0.4,0.91-0.82,1.17-1.56c0.15-0.44,0.36-1.27,0.37-1.58c-0.01-1.36-0.02-2.72-0.03-4.08
		c0-0.68-0.55-1.22-1.22-1.23c-0.69-0.01-1.25,0.54-1.26,1.23l-0.02,1.6c-0.01,1.1-0.91,1.98-2.01,1.97l-0.05,0
		c-1.1-0.01-1.98-0.9-1.98-1.99V2.02c-0.02-0.15-0.15-0.26-0.29-0.25c-0.13,0.01-0.24,0.11-0.25,0.25c0,0.14,0,0.38,0,0.51H17.16z"
		/>
	<g>
		<path class="st0" d="M25.53,2.53v-0.3c0-1-0.68-1.94-1.67-2.08c-1.21-0.17-2.24,0.76-2.24,1.93v11.24c0.06,4.07,6.1,4.08,5.97,0
			v-1.87c0.04-0.15,0.18-0.25,0.33-0.24c0.14,0.01,0.26,0.11,0.29,0.25L28.2,27.52c0,0.21,0.21,0.54,0.42,0.55
			c0.49,0.01,0.9-0.04,1.57-0.2c0.26-0.06,0.51-0.13,0.73-0.21c0.03-0.01,0.25-0.06,0.36-0.29c0.06-0.14,0.07-0.31-0.01-0.46
			c-0.22-0.19-0.48-0.45-0.71-0.79c-0.54-0.79-0.65-1.59-0.68-2.01c0-4.16,0-8.32,0-12.47c0.02-2.57-3.96-2.46-3.91,0.02l-0.01,1.74
			c0.02,1.68-2.64,1.69-2.62,0.01l0.01-11.38c0.02-0.15,0.15-0.26,0.29-0.25c0.13,0.01,0.24,0.11,0.25,0.25c0,0.14,0,0.38,0,0.51
			H25.53z"/>
		<path class="st0" d="M17.16,6.53v0.63c0,0.72,0.91,1.52,1.58,1.76c0.78,0.28,1.36,0.52,2.58,0.52c1.25,0,2.03-0.09,2.76-0.49
			c1.04-0.57,1.31-0.96,1.45-1.63V6.53h-1.6v0.45c0.1,0.32-1.41,0.78-2.62,0.77c-1.15-0.01-2.52-0.47-2.6-0.77c0-0.63,0,0.17,0-0.45
			H17.16z"/>
	</g>
	<g>
		<path class="st0" d="M35.53,2.53l0-0.37c0-0.85,0.5-1.68,1.32-1.94c1.35-0.43,2.59,0.57,2.59,1.85v9.63c0,1.1-0.89,1.99-1.98,2
			l-2.58,0.02c-0.25,0.07-0.4,0.31-0.36,0.55c0.04,0.21,0.23,0.37,0.45,0.38c0.51,0,1.02,0,1.52,0c1.1,0,2,0.89,2,2v0.06
			c0,1.1-0.89,1.99-1.99,2c-0.53,0.01-1.06,0.02-1.59,0.03c-0.24,0.07-0.39,0.3-0.38,0.54c0.02,0.25,0.23,0.46,0.49,0.48l2.32-0.01
			c0.87,0,1.72,0.51,1.98,1.34c0.44,1.38-0.58,2.65-1.89,2.65l-2.75,0.01c-2.27,0-4.12-1.84-4.12-4.11v-5.72
			c0-2.35,1.91-4.26,4.26-4.25l2.9,0.01v1.63l-3.18,0.02c-1.14,0-2.17,1.02-2.16,2.17l0.01,6.41c0,1.16,0.94,2.1,2.1,2.11
			c1.02,0.01,2.06,0.02,3,0.01c0,0,0.29-0.08,0.29-0.31c0-0.17-0.13-0.34-0.33-0.31c-0.85-0.01-1.7-0.02-2.55-0.03
			c-2.7-0.07-2.59-4.37,0.11-4.3c0.47,0.01,0.95,0,1.42,0.01c0.21,0.01,0.39-0.16,0.39-0.35c0-0.18-0.14-0.35-0.33-0.37
			c-0.49-0.01-0.98-0.02-1.47-0.03c-2.85-0.02-2.73-4.42,0.03-4.4h2.41c0.15,0,0.26-0.12,0.26-0.26V2.02
			c-0.02-0.15-0.15-0.26-0.29-0.25c-0.13,0.01-0.24,0.11-0.25,0.25c0,0.14,0,0.38,0,0.51H35.53z"/>
		<path class="st0" d="M43.9,2.53V2.08c0-1.08-0.87-1.95-1.95-1.95h0C40.87,0.13,40,1,40,2.08v7.65l-0.56,0l0.02,1.68l0.63,0
			l-0.04,12.35c0,0,0,0,0,0h1.64c0,0,0,0,0,0l-0.03-12.31c0,0,0,0,0,0l2.42-0.04c2.27,0.11,4.23,1.53,4.94,3.53
			c0.85,2.42-0.28,5.29-2.76,6.61c-0.12,0.02-0.23-0.02-0.3-0.11c-0.08-0.12-0.07-0.29,0.05-0.41c1.99-0.96,3.09-3.12,2.68-5.21
			c-0.37-1.9-1.92-3.41-3.88-3.76c0,0,0,0,0,0l-1.27-0.02c-0.07,0-0.6-0.01-0.96,0.42c-0.32,0.37-0.29,0.81-0.28,0.89
			c0.02,3.47,0.04,6.94,0.06,10.41c0,0,0,0,0,0H44c0,0,0,0,0,0l0.02-10.11c0,0,0,0,0,0c1.35,0.06,2.57,0.99,2.93,2.21
			c0.42,1.43-0.35,3.06-1.85,3.69c-0.13,0.08-0.32,0.23-0.5,0.46c-0.21,0.28-0.3,0.55-0.33,0.71c0,0.32-0.01,0.65-0.01,0.97
			c0.02,0.12,0.2,0.93,0.97,1.35c0.47,0.25,0.93,0.23,1.12,0.2c2.95-1.07,4.86-3.92,4.7-6.93c-0.17-3.33-2.83-6.17-6.31-6.57
			c0,0,0,0,0,0c-1.01,0-2.02-0.01-3.03-0.01c0,0,0,0,0,0V2.02c0.02-0.15,0.15-0.26,0.29-0.25c0.13,0.01,0.24,0.11,0.25,0.25
			c0,0.14,0,0.38,0,0.51L43.9,2.53C43.9,2.53,43.9,2.53,43.9,2.53z"/>
		<path class="st0" d="M35.53,6.53v0.63c0,0.72,0.91,1.52,1.58,1.76c0.78,0.28,1.36,0.52,2.58,0.52c1.25,0,2.03-0.09,2.76-0.49
			c1.04-0.57,1.31-0.96,1.45-1.63V6.53h-1.6v0.45c0.1,0.32-1.41,0.78-2.62,0.77c-1.15-0.01-2.52-0.47-2.6-0.77c0-0.63,0,0.17,0-0.45
			H35.53z"/>
	</g>
	<line class="st0" x1="41.66" y1="11.45" x2="40.09" y2="11.41"/>
	<line class="st0" x1="41.67" y1="9.73" x2="40" y2="9.73"/>
	<path class="st0" d="M78.57,9.76L61.06,9.71c-0.47,0.1-3.4,0.57-5.07,3.21c-1.59,2.5-1.45,5.98,0.63,8.37
		c1.9,2.19,4.99,2.96,7.69,2c2.53-0.9,4.34-3.19,4.67-5.89v-5.96h-1.69v5.96c-0.38,2.25-2.03,4.04-4.16,4.54
		c-1.81,0.43-3.79-0.12-5.11-1.52c-1.6-1.7-1.9-4.32-0.76-6.31c1.28-2.25,3.76-2.62,4.07-2.66h17.29c0.15-0.01,0.27,0.11,0.27,0.26
		c0,0.14-0.13,0.26-0.27,0.25c-1.49,0.01-2.99-0.01-4.48,0.03c-3.05,0.09-2.92,4.55,0.03,4.43l2.46-0.02
		c0.16,0.03,0.28,0.17,0.27,0.32c0,0.14-0.11,0.27-0.25,0.3c-0.85,0-1.67,0-2.49,0c-1.23,0-2.22,1-2.22,2.22l0.01,7.99
		c-0.05,0.31,0.07,0.6,0.3,0.73c0.17,0.1,0.34,0.09,0.42,0.08c0.33,0,0.74-0.03,1.21-0.14c0.45-0.1,0.82-0.25,1.11-0.38
		c0.02-0.01,0.11-0.08,0.13-0.2c0.02-0.11-0.03-0.23-0.13-0.3c-0.16-0.17-0.33-0.38-0.49-0.61c-0.54-0.8-0.76-1.6-0.85-2.17
		l-0.02-4.81c0-0.4,0.32-0.72,0.71-0.72h2.16c2.78,0.02,2.74-4.06-0.02-4.01l-2.46-0.02c-0.28-0.01-0.48-0.26-0.46-0.51
		c0.02-0.24,0.23-0.43,0.49-0.43c1.62,0.01,2.83-0.05,4.45-0.04C81.17,13.63,81.2,9.71,78.57,9.76z"/>
	<g>
		<path class="st0" d="M62.83,2.53l0-0.45c0-1.08,0.87-1.95,1.95-1.95l0,0c1.08,0,1.95,0.87,1.95,1.95v9.95h-1.7V2.02
			c-0.02-0.15-0.15-0.26-0.29-0.25c-0.13,0.01-0.24,0.11-0.25,0.25c0,0.14,0,0.38,0,0.51H62.83z"/>
		<path class="st0" d="M71.21,2.53l0-0.45c0-1.08-0.87-1.95-1.95-1.95l0,0c-1.08,0-1.95,0.87-1.95,1.95l-0.03,7.63h1.7l0.03-7.69
			c0.02-0.15,0.15-0.26,0.29-0.25c0.13,0.01,0.24,0.11,0.25,0.25c0,0.14,0,0.38,0,0.51H71.21z"/>
		<path class="st0" d="M62.83,6.53v0.63c0,0.72,0.91,1.52,1.58,1.76C65.2,9.2,65.77,9.44,67,9.44c1.25,0,2.03-0.09,2.76-0.49
			c1.04-0.57,1.31-0.96,1.45-1.63V6.53h-1.6v0.45c0.1,0.32-1.41,0.78-2.62,0.77c-1.15-0.01-2.52-0.47-2.6-0.77c0-0.63,0,0.17,0-0.45
			H62.83z"/>
	</g>
	<path class="st1" d="M67.28,12.03l-6.01,0c-0.4,0.07-2.21,0.43-3.29,2.07c-1.19,1.79-1.09,4.51,0.7,6.16
		c1.61,1.49,4.02,1.58,5.72,0.54c1.7-1.04,2.13-2.84,2.2-3.2c0-1.28,0-2.57,0-3.85l-1.67,0.03l-0.04,3.69
		c-0.05,0.19-0.4,1.46-1.65,2.06c-1.28,0.61-2.85,0.2-3.57-0.74c-0.96-1.25-0.74-2.7-0.63-2.94c0.48-1.12,0.98-1.7,2.2-2.02
		c1.22-0.02,4.77-0.05,6.03-0.07L67.28,12.03z"/>
	<path class="st0" d="M71.43,27.31c-0.01,0.07-0.04,0.28-0.22,0.46c-0.12,0.12-0.25,0.17-0.32,0.19c-0.25,0.04-0.46,0.08-1,0.01
		c-0.82-0.1-1.32-0.25-1.49-0.32c-0.45-0.19-0.33-0.59-0.26-0.71c0.31-0.44,0.37-0.31,0.75-0.82c0.56-0.74,0.71-1.51,0.78-1.94
		c0-3.31,0-6.63,0-9.94c0-0.02,0.03-0.22-0.12-0.37c-0.13-0.13-0.3-0.12-0.32-0.12c-0.09,0-0.18,0-0.27,0v-1.72h0.32
		c1.15,0,2.09,0.93,2.09,2.09L71.43,27.31z"/>
	<g>
		<path class="st0" d="M84.28,2.53l0-0.45c0-1.08,0.87-1.95,1.95-1.95l0,0c1.08,0,1.95,0.87,1.95,1.95l0,21.65h-1.7l0-21.71
			c-0.02-0.15-0.15-0.26-0.29-0.25c-0.13,0.01-0.24,0.11-0.25,0.25c0,0.14,0,0.38,0,0.51H84.28z"/>
		<path class="st0" d="M92.66,2.53l0-0.45c0-1.08-0.87-1.95-1.95-1.95l0,0c-1.08,0-1.95,0.87-1.95,1.95l0,6.53h1.67l0.03-6.59
			c0.02-0.15,0.15-0.26,0.29-0.25c0.13,0.01,0.24,0.11,0.25,0.25c0,0.14,0,0.38,0,0.51H92.66z"/>
		<path class="st0" d="M84.28,6.53v0.63c0,0.72,0.91,1.52,1.58,1.76c0.78,0.28,1.36,0.52,2.58,0.52c1.25,0,2.03-0.09,2.76-0.49
			c1.04-0.57,1.31-0.96,1.45-1.63V6.53h-1.6v0.45c0.1,0.32-1.41,0.78-2.62,0.77c-1.15-0.01-2.52-0.47-2.6-0.77c0-0.63,0,0.17,0-0.45
			H84.28z"/>
	</g>
	<g>
		<path class="st0" d="M143.08,2.53V2.18c0-0.97-0.66-1.88-1.63-2.03c-1.22-0.2-2.28,0.74-2.28,1.93l0,12.15
			c0,2.44,1.96,4.42,4.4,4.44l1.72,0.02c0.26,0.03,0.45,0.24,0.47,0.48c0.02,0.27-0.18,0.52-0.47,0.56
			c-1.5,0.01-2.51,0.02-3.99,0.03c-1.01,0.01-1.94,0.7-2.1,1.69c-0.2,1.27,0.77,2.36,2,2.36h3.93c2.48,0,4.49-2,4.5-4.48
			c0.01-2.48-1.99-4.5-4.47-4.51l-1.57-0.01c-0.27-0.02-0.48-0.23-0.5-0.48c-0.02-0.28,0.2-0.55,0.5-0.57
			c1.42,0,2.61,0.01,4.03,0.01c1.12,0,2.03-0.9,2.04-2.02c0-1.13-0.91-2.04-2.04-2.04l-6.73,0.05v1.7l6.86-0.01
			c0.16,0.01,0.28,0.15,0.26,0.29c-0.01,0.13-0.01,0.31-0.15,0.32c-1.62,0-2.89,0.01-4.51,0.01c-1.02,0.25-1.82,1.1-1.82,2.15
			c0,1.06,0.61,1.9,1.64,2.15c0.87,0.02,1.69,0.05,2.56,0.07c1.73,0.18,2.6,2.06,2.32,3.44c-0.21,1.05-1.2,1.89-2.36,2.16
			c-1.55,0-3.1,0.01-4.65,0.01c-0.16-0.03-0.27-0.16-0.28-0.31c-0.01-0.16,0.11-0.31,0.28-0.34c1.59,0,3.02,0,4.62,0
			c0.89-0.23,1.66-1.3,1.71-1.75c0.13-1.09-0.4-2.14-1.59-2.55L143.18,17c-0.2-0.03-1.02-0.16-1.65-0.88
			c-0.59-0.67-0.64-1.42-0.65-1.64c0-4.15,0-8.31,0-12.46c0.02-0.15,0.15-0.26,0.29-0.25c0.13,0.01,0.24,0.11,0.25,0.25
			c0,0.14,0,0.38,0,0.51H143.08z"/>
		<path class="st0" d="M134.7,2.53v-0.3c0-1,0.68-1.94,1.67-2.08c1.21-0.17,2.24,0.76,2.24,1.93v9.5c0,1.17-0.95,2.12-2.12,2.12
			h-0.75c-0.03,0-0.24,0.01-0.39,0.19c-0.16,0.21-0.09,0.45-0.08,0.47c0,3.21-0.01,6.42-0.01,9.63c0.02,0.33,0.09,0.85,0.35,1.41
			c0.3,0.67,0.71,1.1,0.97,1.34c0.16,0.15,0.17,0.3,0.17,0.34c0.01,0.28-0.28,0.58-0.73,0.66c-0.3,0.07-0.63,0.13-0.98,0.17
			c-0.51,0.07-0.61,0.09-1.04,0.09c-0.37,0-0.4-0.64-0.4-0.74c0-4.62,0.02-8.77,0.03-13.39c0.01-0.17,0.07-0.71,0.49-1.21
			c0.41-0.48,0.74-0.58,0.91-0.62c0.43,0,1.03-0.03,1.46-0.03c0.23,0,0.41-0.18,0.41-0.41v-9.6c-0.02-0.15-0.15-0.26-0.29-0.25
			c-0.13,0.01-0.24,0.11-0.25,0.25c0,0.14,0,0.38,0,0.51H134.7z"/>
		<path class="st0" d="M134.7,6.53v0.63c0,0.72,0.91,1.52,1.58,1.76c0.78,0.28,1.36,0.52,2.58,0.52c1.25,0,2.03-0.09,2.76-0.49
			c1.04-0.57,1.31-0.96,1.45-1.63V6.53h-1.6v0.45c0.1,0.32-1.41,0.78-2.62,0.77c-1.15-0.01-2.52-0.47-2.6-0.77c0-0.63,0,0.17,0-0.45
			H134.7z"/>
	</g>
	<g>
		<path class="st0" d="M105.25,2.53V2.08c0-1.08,0.87-1.95,1.95-1.95h0c1.08,0,1.95,0.87,1.95,1.95v19.3
			c-0.02,0.02-0.07,0.08-0.17,0.11c-0.12,0.03-0.21-0.02-0.23-0.03c-1.85-3.25-3.7-6.49-5.56-9.74c-0.02-0.02-0.33-0.39-0.8-0.33
			c-0.36,0.05-0.66,0.33-0.74,0.7c0,2.51,0,5.01,0,7.52c-0.03,0.16-0.16,0.86-0.8,1.35c-0.47,0.36-0.97,0.41-1.17,0.42
			c-1.14,0-2.28,0-3.42,0l0-3.05c-0.04-0.21-0.17-0.81-0.7-1.33c-0.56-0.54-1.2-0.64-1.4-0.67c-0.4,0-0.79,0-1.19,0
			c-0.09,0.01-0.9,0.05-1.4-0.56c-0.47-0.56-0.48-1.44,0-2.11l1.95-1.93c0.06-0.09,0.05-0.21-0.02-0.29
			c-0.08-0.08-0.21-0.09-0.3-0.02c-0.17,0.17-0.86,0.86-1.03,1.04c-0.12,0.12-0.72,0.73-0.84,0.85c-0.46,0.41-1.11,0.52-1.67,0.27
			c-0.54-0.24-0.91-0.76-0.94-1.36c0.01-0.28-0.01-2.51,0-2.79c0.27,0,0.58-0.01,0.92-0.05c0.31-0.04,0.59-0.09,0.84-0.15
			c-0.03,1.29-0.05,2.23-0.06,2.37c-0.01,0.17,0.15,0.19,0.2,0.14c0.69-0.7,1.22-1.2,1.91-1.9c0.84-0.36,1.82-0.09,2.36,0.63
			c0.56,0.75,0.52,1.8-0.11,2.51c-0.53,0.48-1.05,0.96-1.58,1.44c-0.06,0.04-0.09,0.11-0.08,0.18c0.02,0.08,0.1,0.15,0.19,0.14
			c0.28-0.04,1.78-0.21,3.1,0.84c0.99,0.78,1.38,1.86,1.47,2.4c0.02,0.12,0.07,0.49,0.08,0.96c0.01,0.33,0,0.6-0.01,0.8
			c0.47,0,0.95,0,1.42,0c0.37,0,0.66-0.3,0.66-0.66l-0.03-7.17c0.11-0.99,0.79-1.83,1.73-2.14c0.92-0.3,1.93-0.04,2.61,0.66
			c1.04,1.7,2.07,3.41,3.11,5.11V2.02c-0.02-0.15-0.15-0.26-0.29-0.25c-0.13,0.01-0.24,0.11-0.25,0.25c0,0.14,0,0.38,0,0.51H105.25z
			"/>
		<path class="st0" d="M113.63,2.53V2.08c0-1.08-0.87-1.95-1.95-1.95c-1.08,0-1.95,0.87-1.95,1.95v7.66
			c0.02,0.18,0.09,0.65,0.47,1.07c0.47,0.53,1.08,0.62,1.23,0.64c3.21,0,6.41,0,9.62,0c0.27,0.03,3.07,0.43,4.31,2.83
			c1.25,2.41,0.29,5.6-2.03,7.07c-1.86,1.17-4.32,1.08-6.07-0.17c-1.84-1.31-2.17-3.36-2.2-3.63c-0.22-1.53,0.3-2.73,0.53-3.19
			c-0.59,0.01-1.19,0.02-1.78,0.03c-0.21,0.59-0.85,2.65,0.05,4.95c0.17,0.43,0.72,1.71,2,2.76c1.94,1.59,5.29,2.43,8.09,0.81
			c3.46-1.99,4.12-6.57,2.75-9.35c-0.88-1.79-2.61-2.83-2.73-2.9c-1.1-0.64-2.13-0.84-2.75-0.92c-3.12,0-6.25,0-9.37,0
			c-0.02,0-0.22,0-0.34-0.16c-0.09-0.12-0.08-0.25-0.07-0.28c0-2.43,0-4.86,0-7.3c0.02-0.15,0.15-0.26,0.29-0.25
			c0.13,0.01,0.24,0.11,0.25,0.25c0,0.14,0,0.38,0,0.51H113.63z"/>
		<path class="st0" d="M105.25,6.53v0.63c0,0.72,0.91,1.52,1.58,1.76c0.78,0.28,1.36,0.52,2.58,0.52c1.25,0,2.03-0.09,2.76-0.49
			c1.04-0.57,1.31-0.96,1.45-1.63V6.53h-1.6v0.45c0.1,0.32-1.41,0.78-2.62,0.77c-1.15-0.01-2.52-0.47-2.6-0.77c0-0.63,0,0.17,0-0.45
			H105.25z"/>
	</g>
	<path class="st0" d="M88.66,23.71l1.75,0.01v-4.51c0-0.26,0.21-0.47,0.47-0.47h2.71c0.26,0,0.47,0.21,0.47,0.47v2.62
		c0,1.04,0.85,1.89,1.89,1.89h3.82c2.35,0,4.25-1.91,4.25-4.25c0-1.06,0-1.89,0.01-1.88c0.02,0.02,3,5.31,3,5.31
		c0.65,0.74,1.67,1.03,2.61,0.76c0.94-0.27,1.64-1.05,1.81-2.01c0-2.49,0-4.99,0-7.48c0-0.24,0.2-0.44,0.44-0.44h9.24
		c0.36,0.09,1,0.29,1.53,0.85c0.96,1,1.21,2.77,0.33,3.98c-1.12,1.55-3.7,1.7-4.91,0.23c-0.98-1.19-0.85-3.18,0.51-4.42
		c-0.75,0-1.49,0-2.24,0c-0.17,0.36-1.08,2.39-0.14,4.47c0.5,1.11,1.29,1.69,1.48,1.83c1.34,0.96,3.15,1.07,4.61,0.45
		c1.64-0.7,2.32-2.1,2.44-2.36c0.17-0.37,0.66-1.54,0.33-3.03c-0.07-0.33-0.42-1.7-1.72-2.71c-0.93-0.72-2.52-0.9-2.96-0.96
		c-3.19,0-5.73,0-8.92,0c-0.14,0.02-0.89,0.13-1.38,0.81c-0.32,0.45-0.36,0.92-0.36,1.11c0,2.51,0,5.01,0,7.52
		c-0.01,0.04-0.17,0.43-0.6,0.53c-0.46,0.12-0.8-0.2-0.82-0.22c-1.87-3.25-3.74-6.5-5.61-9.75c-0.01-0.01-0.1-0.12-0.21-0.1
		c-0.12,0.02-0.22,0.15-0.2,0.31c0,2.58,0,5.17,0,7.75c-0.03,0.26-0.1,0.47-0.18,0.63c-0.5,1.08-1.8,1.36-2.02,1.4
		c-1.38,0-2.76,0-4.14,0c-0.03,0-0.11-0.02-0.17-0.09c-0.06-0.06-0.07-0.13-0.08-0.16c0-0.97,0-1.94,0-2.92
		c-0.01-0.16-0.08-0.8-0.63-1.32c-0.49-0.47-1.07-0.53-1.24-0.55c-1.1,0-2.2,0-3.3,0c-0.2,0.03-0.72,0.14-1.19,0.58
		c-0.55,0.52-0.66,1.16-0.69,1.34C88.66,20.53,88.66,22.12,88.66,23.71z"/>
	<path class="st0" d="M123.84,9.7h13.06v1.72h-10.61c-0.25-0.29-0.59-0.62-1.04-0.95C124.73,10.09,124.23,9.85,123.84,9.7z"/>
	<path class="st0" d="M126.77,12.12h4.5c0.13,0.01,0.8,0.09,1.28,0.67c0.33,0.4,0.39,0.84,0.4,1.01c0,4.52,0,9.05,0,13.57
		c0.01,0.1-0.01,0.17-0.03,0.22c-0.13,0.36-0.62,0.42-0.65,0.42c-0.25,0.06-0.81,0.15-1.43-0.08c-0.34-0.12-0.59-0.3-0.75-0.44
		c-0.03-0.02-0.21-0.16-0.22-0.41c-0.01-0.21,0.12-0.41,0.32-0.5c0.21-0.12,0.52-0.33,0.81-0.68c0.19-0.23,0.31-0.46,0.38-0.64
		c0-3.73,0-7.45,0-11.18c0-0.03,0.01-0.16-0.08-0.27c-0.09-0.1-0.22-0.14-0.36-0.11c-1.1,0-2.2,0-3.29,0
		c-0.08-0.22-0.18-0.46-0.32-0.72C127.14,12.62,126.95,12.34,126.77,12.12z"/>
</g>
</svg>
