<?xml version="1.0" encoding="utf-8"?>
<!-- Generator: Adobe Illustrator 24.1.1, SVG Export Plug-In . SVG Version: 6.00 Build 0)  -->
<svg version="1.1" id="Layer_1" xmlns="http://www.w3.org/2000/svg" xmlns:xlink="http://www.w3.org/1999/xlink" x="0px" y="0px"
	 viewBox="0 0 154.9 28.2" style="enable-background:new 0 0 154.9 28.2;" xml:space="preserve">
<style type="text/css">
	.st0{fill:#E6DFCF;stroke:#625E55;stroke-width:0.3;stroke-miterlimit:10;}
	.st1{fill:#E6DFCF;stroke:#625E55;stroke-width:0.3;}
</style>
<g>
	
		<image style="overflow:visible;opacity:0.3;" width="180" height="53" xlink:href="DC28FE2C.png"  transform="matrix(1 0 0 1 -12.9451 -7.4361)">
	</image>
	<g>
		<g>
			<g>
				<path id="SS_25_" class="st0" d="M0.2,19.6c0.1-0.7,0.3-1,0.8-1.6l0,0l2.4,1.3c0.5,0.3,1.1,0.4,1.7,0.4l7.4-0.1
					c1.3,0,2.3-1,2.3-2.3c0-1.3-1-2.3-2.3-2.3l-1,0.1c-3.5,0-6.4-2.9-6.3-6.5c0.1-3.5,3.1-6.1,6.6-6.1l138.8,0c0,0,0,0,0,0
					c0.6-0.1,1.4-0.4,2.2-0.9c0.4-0.2,0.5-0.3,0.8-0.5c0.3-0.2,0.4-0.2,0.5,0c0.2,0.3,0.3,0.5,0.4,1c0.3,0.9,0.2,1.4,0.2,1.9
					c0,0.2-0.3,0.3-0.6,0.3l-143,0c-2.3,0-4.3,2-4.3,4.5v0.1c0,2.6,2.1,4.6,4.6,4.6l1.2,0c2.1,0,3.9,1.7,3.9,3.9v0.1
					c0,2.2-1.8,4-4,4c-3.7,0-9.9,0-12.1,0C0.1,21.4,0.1,20.3,0.2,19.6z"/>
				<path id="SS_24_" class="st0" d="M154.1,4.8H11.5c-2.2,0-4.1,1.8-4.1,4.1V9c0,2.2,1.8,4,4,4h0.9c2.4,0,4.5,1.7,4.7,4.1
					c0.2,2.7-1.9,4.9-4.5,4.9L0.8,21.9c-0.4,0-0.7,0.3-0.6,0.7c0,0.5,0,0.8,0.1,1.3c0.1,0.5,0.2,0.7,0.3,1.1
					c0.1,0.3,0.5,0.5,0.8,0.3c0.3-0.2,0.7-0.5,1.2-0.7c0.8-0.4,1.5-0.6,2.1-0.7c0,0,0,0,0,0l7.8,0c3.4,0,6.2-2.8,6.2-6.2
					s-2.8-6.2-6.2-6.2l-1,0c-1.4,0-2.5-1.2-2.4-2.6c0.1-1.2,1.2-2.2,2.4-2.2l137.6,0c0.7,0,1.8,0.1,3.1,0.7c0.5,0.2,0.9,0.6,1.2,0.9
					c0.2,0.2,0.6,0.1,0.7-0.2c0.1-0.4,0.4-1,0.5-1.5c0.1-0.5,0.1-0.9,0.1-1.2C154.7,5.1,154.4,4.8,154.1,4.8z"/>
			</g>
			<path class="st0" d="M17.2,2.6V2.2c0-1,0.7-1.9,1.6-2C20,0,21.1,0.9,21.1,2.1v19.8c0,0.2,0.2,0.3,0.3,0.2c0.1,0,0.2-0.1,0.3-0.2
				c0-0.6,0-1,0-1.5c0-1.6,1.2-3.1,2.9-3.2c1.7-0.1,3.2,1.3,3.2,3l0,7.4c0,0.3-0.2,0.5-0.5,0.5c-0.4,0-0.8,0-1.3-0.1
				c-0.2-0.1-1.3-0.4-1.4-0.6c-0.2-0.4,0.9-0.8,1.2-1.6c0.2-0.4,0.4-1.3,0.4-1.6c0-1.4,0-2.7,0-4.1c0-0.7-0.5-1.2-1.2-1.2
				c-0.7,0-1.3,0.5-1.3,1.2l0,1.6c0,1.1-0.9,2-2,2l-0.1,0c-1.1,0-2-0.9-2-2V2c0-0.2-0.2-0.3-0.3-0.3c-0.1,0-0.2,0.1-0.3,0.3
				c0,0.1,0,0.4,0,0.5H17.2z"/>
			<g>
				<path class="st0" d="M25.6,2.6V2.3c0-1-0.7-1.9-1.7-2.1c-1.2-0.2-2.2,0.8-2.2,1.9v11.2c0.1,4.1,6.1,4.1,6,0v-1.9
					c0-0.1,0.2-0.2,0.3-0.2c0.1,0,0.3,0.1,0.3,0.3l0,16.1c0,0.2,0.2,0.5,0.4,0.5c0.5,0,0.9,0,1.6-0.2c0.3-0.1,0.5-0.1,0.7-0.2
					c0,0,0.3-0.1,0.4-0.3c0.1-0.1,0.1-0.3,0-0.5c-0.2-0.2-0.5-0.4-0.7-0.8c-0.5-0.8-0.7-1.6-0.7-2c0-4.2,0-8.3,0-12.5
					c0-2.6-4-2.5-3.9,0l0,1.7c0,1.7-2.6,1.7-2.6,0l0-11.4c0-0.2,0.2-0.3,0.3-0.3c0.1,0,0.2,0.1,0.3,0.3c0,0.1,0,0.4,0,0.5H25.6z"/>
				<path class="st0" d="M17.2,6.6v0.6c0,0.7,0.9,1.5,1.6,1.8c0.8,0.3,1.4,0.5,2.6,0.5c1.2,0,2-0.1,2.8-0.5c1-0.6,1.3-1,1.4-1.6V6.6
					H24V7c0.1,0.3-1.4,0.8-2.6,0.8c-1.2,0-2.5-0.5-2.6-0.8c0-0.6,0,0.2,0-0.5H17.2z"/>
			</g>
			<g>
				<path class="st0" d="M35.6,2.6l0-0.4c0-0.9,0.5-1.7,1.3-1.9c1.3-0.4,2.6,0.6,2.6,1.9v9.6c0,1.1-0.9,2-2,2l-2.6,0
					c-0.2,0.1-0.4,0.3-0.4,0.5c0,0.2,0.2,0.4,0.5,0.4c0.5,0,1,0,1.5,0c1.1,0,2,0.9,2,2v0.1c0,1.1-0.9,2-2,2c-0.5,0-1.1,0-1.6,0
					c-0.2,0.1-0.4,0.3-0.4,0.5c0,0.3,0.2,0.5,0.5,0.5l2.3,0c0.9,0,1.7,0.5,2,1.3c0.4,1.4-0.6,2.6-1.9,2.6l-2.7,0
					c-2.3,0-4.1-1.8-4.1-4.1V14c0-2.4,1.9-4.3,4.3-4.2l2.9,0v1.6l-3.2,0c-1.1,0-2.2,1-2.2,2.2l0,6.4c0,1.2,0.9,2.1,2.1,2.1
					c1,0,2.1,0,3,0c0,0,0.3-0.1,0.3-0.3c0-0.2-0.1-0.3-0.3-0.3c-0.9,0-1.7,0-2.6,0c-2.7-0.1-2.6-4.4,0.1-4.3c0.5,0,0.9,0,1.4,0
					c0.2,0,0.4-0.2,0.4-0.4c0-0.2-0.1-0.3-0.3-0.4c-0.5,0-1,0-1.5,0c-2.8,0-2.7-4.4,0-4.4h2.4c0.1,0,0.3-0.1,0.3-0.3V2
					c0-0.2-0.2-0.3-0.3-0.3c-0.1,0-0.2,0.1-0.3,0.3c0,0.1,0,0.4,0,0.5H35.6z"/>
				<path class="st0" d="M43.9,2.6V2.1c0-1.1-0.9-2-2-2h0c-1.1,0-2,0.9-2,2v7.6l-0.6,0l0,1.7l0.6,0l0,12.3c0,0,0,0,0,0h1.6
					c0,0,0,0,0,0l0-12.3c0,0,0,0,0,0l2.4,0c2.3,0.1,4.2,1.5,4.9,3.5c0.9,2.4-0.3,5.3-2.8,6.6c-0.1,0-0.2,0-0.3-0.1
					c-0.1-0.1-0.1-0.3,0.1-0.4c2-1,3.1-3.1,2.7-5.2c-0.4-1.9-1.9-3.4-3.9-3.8c0,0,0,0,0,0l-1.3,0c-0.1,0-0.6,0-1,0.4
					c-0.3,0.4-0.3,0.8-0.3,0.9c0,3.5,0,6.9,0.1,10.4c0,0,0,0,0,0H44c0,0,0,0,0,0l0-10.1c0,0,0,0,0,0c1.4,0.1,2.6,1,2.9,2.2
					c0.4,1.4-0.3,3.1-1.8,3.7c-0.1,0.1-0.3,0.2-0.5,0.5c-0.2,0.3-0.3,0.5-0.3,0.7c0,0.3,0,0.6,0,1c0,0.1,0.2,0.9,1,1.3
					c0.5,0.3,0.9,0.2,1.1,0.2c3-1.1,4.9-3.9,4.7-6.9c-0.2-3.3-2.8-6.2-6.3-6.6c0,0,0,0,0,0c-1,0-2,0-3,0c0,0,0,0,0,0V2
					c0-0.2,0.2-0.3,0.3-0.3c0.1,0,0.2,0.1,0.3,0.3c0,0.1,0,0.4,0,0.5L43.9,2.6C43.9,2.6,43.9,2.6,43.9,2.6z"/>
				<path class="st0" d="M35.6,6.6v0.6c0,0.7,0.9,1.5,1.6,1.8c0.8,0.3,1.4,0.5,2.6,0.5c1.2,0,2-0.1,2.8-0.5c1-0.6,1.3-1,1.4-1.6V6.6
					h-1.6V7c0.1,0.3-1.4,0.8-2.6,0.8c-1.2,0-2.5-0.5-2.6-0.8c0-0.6,0,0.2,0-0.5H35.6z"/>
			</g>
			<line class="st0" x1="41.7" y1="11.5" x2="40.1" y2="11.4"/>
			<line class="st0" x1="41.7" y1="9.8" x2="40" y2="9.8"/>
			<path class="st0" d="M78.6,9.8l-17.5,0c-0.5,0.1-3.4,0.6-5.1,3.2c-1.6,2.5-1.4,6,0.6,8.4c1.9,2.2,5,3,7.7,2
				c2.5-0.9,4.3-3.2,4.7-5.9v-6h-1.7v6c-0.4,2.2-2,4-4.2,4.5c-1.8,0.4-3.8-0.1-5.1-1.5c-1.6-1.7-1.9-4.3-0.8-6.3
				c1.3-2.2,3.8-2.6,4.1-2.7h17.3c0.1,0,0.3,0.1,0.3,0.3c0,0.1-0.1,0.3-0.3,0.3c-1.5,0-3,0-4.5,0c-3,0.1-2.9,4.6,0,4.4l2.5,0
				c0.2,0,0.3,0.2,0.3,0.3c0,0.1-0.1,0.3-0.3,0.3c-0.8,0-1.7,0-2.5,0C73,17,72,18,72,19.3l0,8c0,0.3,0.1,0.6,0.3,0.7
				c0.2,0.1,0.3,0.1,0.4,0.1c0.3,0,0.7,0,1.2-0.1c0.4-0.1,0.8-0.2,1.1-0.4c0,0,0.1-0.1,0.1-0.2c0-0.1,0-0.2-0.1-0.3
				c-0.2-0.2-0.3-0.4-0.5-0.6c-0.5-0.8-0.8-1.6-0.8-2.2l0-4.8c0-0.4,0.3-0.7,0.7-0.7h2.2c2.8,0,2.7-4.1,0-4l-2.5,0
				c-0.3,0-0.5-0.3-0.5-0.5c0-0.2,0.2-0.4,0.5-0.4c1.6,0,2.8,0,4.5,0C81.2,13.7,81.2,9.7,78.6,9.8z"/>
			<g>
				<path class="st0" d="M62.9,2.6l0-0.5c0-1.1,0.9-2,2-2h0c1.1,0,2,0.9,2,2v10h-1.7V2c0-0.2-0.2-0.3-0.3-0.3
					c-0.1,0-0.2,0.1-0.3,0.3c0,0.1,0,0.4,0,0.5H62.9z"/>
				<path class="st0" d="M71.2,2.6l0-0.5c0-1.1-0.9-2-2-2h0c-1.1,0-2,0.9-2,2l0,7.6H69L69,2c0-0.2,0.2-0.3,0.3-0.3
					c0.1,0,0.2,0.1,0.3,0.3c0,0.1,0,0.4,0,0.5H71.2z"/>
				<path class="st0" d="M62.9,6.6v0.6c0,0.7,0.9,1.5,1.6,1.8c0.8,0.3,1.4,0.5,2.6,0.5c1.2,0,2-0.1,2.8-0.5c1-0.6,1.3-1,1.4-1.6V6.6
					h-1.6V7c0.1,0.3-1.4,0.8-2.6,0.8c-1.2,0-2.5-0.5-2.6-0.8c0-0.6,0,0.2,0-0.5H62.9z"/>
			</g>
			<path class="st1" d="M67.3,12.1l-6,0c-0.4,0.1-2.2,0.4-3.3,2.1c-1.2,1.8-1.1,4.5,0.7,6.2c1.6,1.5,4,1.6,5.7,0.5
				c1.7-1,2.1-2.8,2.2-3.2c0-1.3,0-2.6,0-3.9l-1.7,0l0,3.7c-0.1,0.2-0.4,1.5-1.6,2.1c-1.3,0.6-2.9,0.2-3.6-0.7
				c-1-1.2-0.7-2.7-0.6-2.9c0.5-1.1,1-1.7,2.2-2c1.2,0,4.8,0,6-0.1L67.3,12.1z"/>
			<path class="st0" d="M71.5,27.3c0,0.1,0,0.3-0.2,0.5C71.1,27.9,71,28,70.9,28c-0.2,0-0.5,0.1-1,0c-0.8-0.1-1.3-0.2-1.5-0.3
				c-0.5-0.2-0.3-0.6-0.3-0.7c0.3-0.4,0.4-0.3,0.8-0.8c0.6-0.7,0.7-1.5,0.8-1.9c0-3.3,0-6.6,0-9.9c0,0,0-0.2-0.1-0.4
				c-0.1-0.1-0.3-0.1-0.3-0.1c-0.1,0-0.2,0-0.3,0v-1.7h0.3c1.2,0,2.1,0.9,2.1,2.1L71.5,27.3z"/>
			<g>
				<path class="st0" d="M84.3,2.6l0-0.5c0-1.1,0.9-2,2-2l0,0c1.1,0,2,0.9,2,2l0,21.6h-1.7l0-21.7c0-0.2-0.2-0.3-0.3-0.3
					C86.1,1.8,86,1.9,86,2c0,0.1,0,0.4,0,0.5H84.3z"/>
				<path class="st0" d="M92.7,2.6l0-0.5c0-1.1-0.9-2-2-2l0,0c-1.1,0-2,0.9-2,2l0,6.5h1.7l0-6.6c0-0.2,0.2-0.3,0.3-0.3
					C90.9,1.8,91,1.9,91,2c0,0.1,0,0.4,0,0.5H92.7z"/>
				<path class="st0" d="M84.3,6.6v0.6c0,0.7,0.9,1.5,1.6,1.8c0.8,0.3,1.4,0.5,2.6,0.5c1.2,0,2-0.1,2.8-0.5c1-0.6,1.3-1,1.4-1.6V6.6
					h-1.6V7c0.1,0.3-1.4,0.8-2.6,0.8c-1.2,0-2.5-0.5-2.6-0.8c0-0.6,0,0.2,0-0.5H84.3z"/>
			</g>
			<g>
				<path class="st0" d="M143.1,2.6V2.2c0-1-0.7-1.9-1.6-2c-1.2-0.2-2.3,0.7-2.3,1.9l0,12.1c0,2.4,2,4.4,4.4,4.4l1.7,0
					c0.3,0,0.5,0.2,0.5,0.5c0,0.3-0.2,0.5-0.5,0.6c-1.5,0-2.5,0-4,0c-1,0-1.9,0.7-2.1,1.7c-0.2,1.3,0.8,2.4,2,2.4h3.9
					c2.5,0,4.5-2,4.5-4.5c0-2.5-2-4.5-4.5-4.5l-1.6,0c-0.3,0-0.5-0.2-0.5-0.5c0-0.3,0.2-0.5,0.5-0.6c1.4,0,2.6,0,4,0
					c1.1,0,2-0.9,2-2c0-1.1-0.9-2-2-2l-6.7,0v1.7l6.9,0c0.2,0,0.3,0.1,0.3,0.3c0,0.1,0,0.3-0.2,0.3c-1.6,0-2.9,0-4.5,0
					c-1,0.3-1.8,1.1-1.8,2.2c0,1.1,0.6,1.9,1.6,2.2c0.9,0,1.7,0.1,2.6,0.1c1.7,0.2,2.6,2.1,2.3,3.4c-0.2,1.1-1.2,1.9-2.4,2.2
					c-1.5,0-3.1,0-4.6,0c-0.2,0-0.3-0.2-0.3-0.3c0-0.2,0.1-0.3,0.3-0.3c1.6,0,3,0,4.6,0c0.9-0.2,1.7-1.3,1.7-1.7
					c0.1-1.1-0.4-2.1-1.6-2.5l-2.6-0.1c-0.2,0-1-0.2-1.6-0.9c-0.6-0.7-0.6-1.4-0.7-1.6c0-4.2,0-8.3,0-12.5c0-0.2,0.2-0.3,0.3-0.3
					c0.1,0,0.2,0.1,0.3,0.3c0,0.1,0,0.4,0,0.5H143.1z"/>
				<path class="st0" d="M134.7,2.6V2.3c0-1,0.7-1.9,1.7-2.1c1.2-0.2,2.2,0.8,2.2,1.9v9.5c0,1.2-0.9,2.1-2.1,2.1h-0.8
					c0,0-0.2,0-0.4,0.2c-0.2,0.2-0.1,0.5-0.1,0.5c0,3.2,0,6.4,0,9.6c0,0.3,0.1,0.8,0.3,1.4c0.3,0.7,0.7,1.1,1,1.3
					c0.2,0.2,0.2,0.3,0.2,0.3c0,0.3-0.3,0.6-0.7,0.7c-0.3,0.1-0.6,0.1-1,0.2c-0.5,0.1-0.6,0.1-1,0.1c-0.4,0-0.4-0.6-0.4-0.7
					c0-4.6,0-8.8,0-13.4c0-0.2,0.1-0.7,0.5-1.2c0.4-0.5,0.7-0.6,0.9-0.6c0.4,0,1,0,1.5,0c0.2,0,0.4-0.2,0.4-0.4V2
					c0-0.2-0.2-0.3-0.3-0.3c-0.1,0-0.2,0.1-0.3,0.3c0,0.1,0,0.4,0,0.5H134.7z"/>
				<path class="st0" d="M134.7,6.6v0.6c0,0.7,0.9,1.5,1.6,1.8c0.8,0.3,1.4,0.5,2.6,0.5c1.2,0,2-0.1,2.8-0.5c1-0.6,1.3-1,1.4-1.6
					V6.6h-1.6V7c0.1,0.3-1.4,0.8-2.6,0.8c-1.2,0-2.5-0.5-2.6-0.8c0-0.6,0,0.2,0-0.5H134.7z"/>
			</g>
			<g>
				<path class="st0" d="M105.3,2.6V2.1c0-1.1,0.9-2,2-2h0c1.1,0,2,0.9,2,2v19.3c0,0-0.1,0.1-0.2,0.1c-0.1,0-0.2,0-0.2,0
					c-1.9-3.2-3.7-6.5-5.6-9.7c0,0-0.3-0.4-0.8-0.3c-0.4,0-0.7,0.3-0.7,0.7c0,2.5,0,5,0,7.5c0,0.2-0.2,0.9-0.8,1.4
					c-0.5,0.4-1,0.4-1.2,0.4c-1.1,0-2.3,0-3.4,0l0-3c0-0.2-0.2-0.8-0.7-1.3c-0.6-0.5-1.2-0.6-1.4-0.7c-0.4,0-0.8,0-1.2,0
					c-0.1,0-0.9,0-1.4-0.6c-0.5-0.6-0.5-1.4,0-2.1l1.9-1.9c0.1-0.1,0-0.2,0-0.3c-0.1-0.1-0.2-0.1-0.3,0c-0.2,0.2-0.9,0.9-1,1
					c-0.1,0.1-0.7,0.7-0.8,0.8c-0.5,0.4-1.1,0.5-1.7,0.3c-0.5-0.2-0.9-0.8-0.9-1.4c0-0.3,0-2.5,0-2.8c0.3,0,0.6,0,0.9,0
					c0.3,0,0.6-0.1,0.8-0.1c0,1.3,0,2.2-0.1,2.4c0,0.2,0.2,0.2,0.2,0.1c0.7-0.7,1.2-1.2,1.9-1.9c0.8-0.4,1.8-0.1,2.4,0.6
					c0.6,0.7,0.5,1.8-0.1,2.5c-0.5,0.5-1.1,1-1.6,1.4c-0.1,0-0.1,0.1-0.1,0.2c0,0.1,0.1,0.1,0.2,0.1c0.3,0,1.8-0.2,3.1,0.8
					c1,0.8,1.4,1.9,1.5,2.4c0,0.1,0.1,0.5,0.1,1c0,0.3,0,0.6,0,0.8c0.5,0,0.9,0,1.4,0c0.4,0,0.7-0.3,0.7-0.7l0-7.2
					c0.1-1,0.8-1.8,1.7-2.1c0.9-0.3,1.9,0,2.6,0.7c1,1.7,2.1,3.4,3.1,5.1V2c0-0.2-0.2-0.3-0.3-0.3c-0.1,0-0.2,0.1-0.3,0.3
					c0,0.1,0,0.4,0,0.5H105.3z"/>
				<path class="st0" d="M113.7,2.6V2.1c0-1.1-0.9-2-2-2c-1.1,0-2,0.9-2,2v7.7c0,0.2,0.1,0.6,0.5,1.1c0.5,0.5,1.1,0.6,1.2,0.6
					c3.2,0,6.4,0,9.6,0c0.3,0,3.1,0.4,4.3,2.8c1.2,2.4,0.3,5.6-2,7.1c-1.9,1.2-4.3,1.1-6.1-0.2c-1.8-1.3-2.2-3.4-2.2-3.6
					c-0.2-1.5,0.3-2.7,0.5-3.2c-0.6,0-1.2,0-1.8,0c-0.2,0.6-0.9,2.7,0,5c0.2,0.4,0.7,1.7,2,2.8c1.9,1.6,5.3,2.4,8.1,0.8
					c3.5-2,4.1-6.6,2.8-9.3c-0.9-1.8-2.6-2.8-2.7-2.9c-1.1-0.6-2.1-0.8-2.8-0.9c-3.1,0-6.2,0-9.4,0c0,0-0.2,0-0.3-0.2
					c-0.1-0.1-0.1-0.2-0.1-0.3c0-2.4,0-4.9,0-7.3c0-0.2,0.2-0.3,0.3-0.3c0.1,0,0.2,0.1,0.3,0.3c0,0.1,0,0.4,0,0.5H113.7z"/>
				<path class="st0" d="M105.3,6.6v0.6c0,0.7,0.9,1.5,1.6,1.8c0.8,0.3,1.4,0.5,2.6,0.5c1.2,0,2-0.1,2.8-0.5c1-0.6,1.3-1,1.4-1.6
					V6.6h-1.6V7c0.1,0.3-1.4,0.8-2.6,0.8c-1.2,0-2.5-0.5-2.6-0.8c0-0.6,0,0.2,0-0.5H105.3z"/>
			</g>
			<path class="st0" d="M88.7,23.7l1.8,0v-4.5c0-0.3,0.2-0.5,0.5-0.5h2.7c0.3,0,0.5,0.2,0.5,0.5v2.6c0,1,0.8,1.9,1.9,1.9h3.8
				c2.3,0,4.3-1.9,4.3-4.3c0-1.1,0-1.9,0-1.9c0,0,3,5.3,3,5.3c0.6,0.7,1.7,1,2.6,0.8c0.9-0.3,1.6-1.1,1.8-2c0-2.5,0-5,0-7.5
				c0-0.2,0.2-0.4,0.4-0.4h9.2c0.4,0.1,1,0.3,1.5,0.8c1,1,1.2,2.8,0.3,4c-1.1,1.5-3.7,1.7-4.9,0.2c-1-1.2-0.8-3.2,0.5-4.4
				c-0.7,0-1.5,0-2.2,0c-0.2,0.4-1.1,2.4-0.1,4.5c0.5,1.1,1.3,1.7,1.5,1.8c1.3,1,3.1,1.1,4.6,0.4c1.6-0.7,2.3-2.1,2.4-2.4
				c0.2-0.4,0.7-1.5,0.3-3c-0.1-0.3-0.4-1.7-1.7-2.7c-0.9-0.7-2.5-0.9-3-1c-3.2,0-5.7,0-8.9,0c-0.1,0-0.9,0.1-1.4,0.8
				c-0.3,0.5-0.4,0.9-0.4,1.1c0,2.5,0,5,0,7.5c0,0-0.2,0.4-0.6,0.5c-0.5,0.1-0.8-0.2-0.8-0.2c-1.9-3.3-3.7-6.5-5.6-9.8
				c0,0-0.1-0.1-0.2-0.1c-0.1,0-0.2,0.1-0.2,0.3c0,2.6,0,5.2,0,7.8c0,0.3-0.1,0.5-0.2,0.6c-0.5,1.1-1.8,1.4-2,1.4
				c-1.4,0-2.8,0-4.1,0c0,0-0.1,0-0.2-0.1c-0.1-0.1-0.1-0.1-0.1-0.2c0-1,0-1.9,0-2.9c0-0.2-0.1-0.8-0.6-1.3
				c-0.5-0.5-1.1-0.5-1.2-0.5c-1.1,0-2.2,0-3.3,0c-0.2,0-0.7,0.1-1.2,0.6c-0.6,0.5-0.7,1.2-0.7,1.3C88.7,20.6,88.7,22.1,88.7,23.7z"
				/>
			<path class="st0" d="M123.9,9.7h13.1v1.7h-10.6c-0.2-0.3-0.6-0.6-1-1C124.8,10.1,124.3,9.9,123.9,9.7z"/>
			<path class="st0" d="M126.8,12.1h4.5c0.1,0,0.8,0.1,1.3,0.7c0.3,0.4,0.4,0.8,0.4,1c0,4.5,0,9,0,13.6c0,0.1,0,0.2,0,0.2
				c-0.1,0.4-0.6,0.4-0.6,0.4c-0.3,0.1-0.8,0.1-1.4-0.1c-0.3-0.1-0.6-0.3-0.8-0.4c0,0-0.2-0.2-0.2-0.4c0-0.2,0.1-0.4,0.3-0.5
				c0.2-0.1,0.5-0.3,0.8-0.7c0.2-0.2,0.3-0.5,0.4-0.6c0-3.7,0-7.5,0-11.2c0,0,0-0.2-0.1-0.3c-0.1-0.1-0.2-0.1-0.4-0.1
				c-1.1,0-2.2,0-3.3,0c-0.1-0.2-0.2-0.5-0.3-0.7C127.2,12.6,127,12.4,126.8,12.1z"/>
		</g>
	</g>
</g>
</svg>
