<?xml version="1.0" encoding="utf-8"?>
<!-- Generator: Adobe Illustrator 24.1.1, SVG Export Plug-In . SVG Version: 6.00 Build 0)  -->
<svg version="1.1" id="Layer_1" xmlns="http://www.w3.org/2000/svg" xmlns:xlink="http://www.w3.org/1999/xlink" x="0px" y="0px"
	 viewBox="0 0 159.7 23.5" style="enable-background:new 0 0 159.7 23.5;" xml:space="preserve">
<style type="text/css">
	.st0{fill:none;}
	.st1{fill:#736357;stroke:#000000;stroke-width:0.2;stroke-miterlimit:10;}
	.st2{display:none;fill:#736357;stroke:#000000;stroke-width:0.25;stroke-miterlimit:10;}
	.st3{fill:#FFFFFF;stroke:#000000;stroke-width:0.5;stroke-miterlimit:10;}
	.st4{fill:#FFFFFF;}
</style>
<g>
	<g>
		<rect x="8.9" y="2.2" class="st0" width="162.4" height="35.3"/>
		<path class="st1" d="M35.3,22.9h-2.2v-8.1c0-2.9-1.1-4.4-3.3-4.4c-1.1,0-2,0.4-2.8,1.3c-0.7,0.8-1.1,1.9-1.1,3.2v7.9h-2.2V2.2h2.2
			v9.1H26c1.1-1.8,2.6-2.7,4.6-2.7c3.2,0,4.7,1.9,4.7,5.7V22.9z"/>
		<path class="st1" d="M49.4,16.5h-9.9c0,1.6,0.5,2.8,1.3,3.6c0.8,0.8,1.9,1.3,3.3,1.3c1.6,0,3-0.5,4.3-1.6v2.1
			c-1.2,0.9-2.9,1.3-4.9,1.3c-2,0-3.5-0.6-4.7-1.9c-1.1-1.3-1.7-3.1-1.7-5.4c0-2.2,0.6-4,1.9-5.3c1.2-1.4,2.8-2.1,4.6-2.1
			s3.2,0.6,4.3,1.8c1,1.2,1.5,2.8,1.5,4.9V16.5z M47.1,14.6c0-1.3-0.3-2.3-0.9-3c-0.6-0.7-1.5-1.1-2.6-1.1c-1.1,0-2,0.4-2.7,1.1
			c-0.7,0.8-1.2,1.7-1.4,3H47.1z"/>
		<path class="st1" d="M63.3,22.9h-2.2v-2.4H61c-1,1.8-2.6,2.7-4.8,2.7c-1.8,0-3.2-0.6-4.2-1.9c-1.1-1.3-1.6-3-1.6-5.1
			c0-2.3,0.6-4.2,1.8-5.6c1.2-1.4,2.7-2.1,4.7-2.1c1.9,0,3.3,0.8,4.2,2.3h0.1V2.2h2.2V22.9z M61.1,16.6v-2.1c0-1.1-0.4-2.1-1.1-2.9
			c-0.7-0.8-1.7-1.2-2.8-1.2c-1.4,0-2.4,0.5-3.2,1.5c-0.8,1-1.2,2.4-1.2,4.2c0,1.6,0.4,2.9,1.1,3.8c0.8,0.9,1.8,1.4,3,1.4
			c1.2,0,2.3-0.5,3-1.4S61.1,17.9,61.1,16.6z"/>
		<path class="st1" d="M78.6,23.2c-2.1,0-3.7-0.7-5-2c-1.2-1.3-1.9-3-1.9-5.2c0-2.4,0.6-4.2,1.9-5.5c1.3-1.3,3-2,5.2-2
			c2.1,0,3.7,0.6,4.9,1.9c1.2,1.3,1.8,3.1,1.8,5.3c0,2.2-0.6,4-1.9,5.4C82.4,22.6,80.7,23.2,78.6,23.2z M78.8,10.5
			c-1.4,0-2.6,0.5-3.4,1.5c-0.8,1-1.3,2.3-1.3,4.1c0,1.7,0.4,3,1.3,3.9s2,1.4,3.4,1.4c1.4,0,2.6-0.5,3.3-1.4c0.8-0.9,1.2-2.3,1.2-4
			c0-1.8-0.4-3.1-1.2-4C81.3,10.9,80.2,10.5,78.8,10.5z"/>
		<path class="st1" d="M94.2,4.1c-0.4-0.2-0.9-0.4-1.5-0.4c-1.6,0-2.4,1-2.4,3v2.2h3.3v1.9h-3.3v12.1h-2.2V10.8h-2.4V8.9h2.4V6.6
			c0-1.5,0.4-2.6,1.3-3.5c0.8-0.9,1.9-1.3,3.2-1.3c0.7,0,1.2,0.1,1.6,0.2V4.1z"/>
		<path class="st1" d="M112.5,22.9h-3.1l-6.2-6.7h-0.1v6.7h-2.2V2.2h2.2v13.1h0.1l5.9-6.4h2.9l-6.5,6.8L112.5,22.9z"/>
		<path class="st1" d="M125,22.9h-2.2v-8c0-3-1.1-4.5-3.3-4.5c-1.1,0-2,0.4-2.8,1.3c-0.7,0.8-1.1,1.9-1.1,3.2v8h-2.2v-14h2.2v2.3
			h0.1c1.1-1.8,2.6-2.7,4.6-2.7c1.5,0,2.7,0.5,3.5,1.5c0.8,1,1.2,2.4,1.2,4.3V22.9z"/>
		<path class="st1" d="M133.7,23.2c-2.1,0-3.7-0.7-5-2c-1.2-1.3-1.9-3-1.9-5.2c0-2.4,0.6-4.2,1.9-5.5c1.3-1.3,3-2,5.2-2
			c2.1,0,3.7,0.6,4.9,1.9s1.8,3.1,1.8,5.3c0,2.2-0.6,4-1.9,5.4C137.5,22.6,135.8,23.2,133.7,23.2z M133.9,10.5
			c-1.4,0-2.6,0.5-3.4,1.5c-0.8,1-1.3,2.3-1.3,4.1c0,1.7,0.4,3,1.3,3.9s2,1.4,3.4,1.4c1.4,0,2.6-0.5,3.3-1.4c0.8-0.9,1.2-2.3,1.2-4
			c0-1.8-0.4-3.1-1.2-4C136.4,10.9,135.3,10.5,133.9,10.5z"/>
		<path class="st1" d="M149.4,22.8c-0.5,0.3-1.2,0.4-2.1,0.4c-2.5,0-3.7-1.4-3.7-4.1v-8.3h-2.4V8.9h2.4V5.5l2.2-0.7v4.1h3.5v1.9
			h-3.5v7.9c0,0.9,0.2,1.6,0.5,2c0.3,0.4,0.8,0.6,1.6,0.6c0.6,0,1.1-0.2,1.5-0.5V22.8z"/>
		<path class="st1" d="M150.1,22.4V20c1.2,0.9,2.6,1.4,4,1.4c2,0,3-0.7,3-2c0-0.4-0.1-0.7-0.3-1c-0.2-0.3-0.4-0.5-0.7-0.7
			c-0.3-0.2-0.6-0.4-1-0.5c-0.4-0.2-0.8-0.3-1.3-0.5c-0.6-0.2-1.2-0.5-1.6-0.7c-0.5-0.3-0.9-0.5-1.2-0.8s-0.6-0.7-0.7-1.1
			c-0.2-0.4-0.2-0.9-0.2-1.4c0-0.7,0.2-1.2,0.5-1.7s0.7-0.9,1.2-1.3c0.5-0.3,1.1-0.6,1.7-0.8c0.6-0.2,1.3-0.3,2-0.3
			c1.2,0,2.3,0.2,3.3,0.6v2.3c-1-0.7-2.2-1-3.6-1c-0.4,0-0.8,0-1.1,0.1c-0.3,0.1-0.6,0.2-0.9,0.4c-0.2,0.2-0.4,0.4-0.6,0.6
			c-0.1,0.2-0.2,0.5-0.2,0.8c0,0.4,0.1,0.7,0.2,0.9c0.1,0.2,0.3,0.5,0.6,0.7c0.3,0.2,0.6,0.4,0.9,0.5c0.4,0.2,0.8,0.3,1.2,0.5
			c0.6,0.2,1.2,0.5,1.7,0.7c0.5,0.3,0.9,0.5,1.3,0.8c0.3,0.3,0.6,0.7,0.8,1.1c0.2,0.4,0.3,0.9,0.3,1.5c0,0.7-0.2,1.3-0.5,1.8
			c-0.3,0.5-0.7,0.9-1.2,1.3c-0.5,0.3-1.1,0.6-1.8,0.8c-0.7,0.2-1.4,0.2-2.1,0.2C152.4,23.2,151.2,23,150.1,22.4z"/>
	</g>
	<path class="st2" d="M0.1,11.7v9.7c0,0,21.8,0.3,21.8,0s0-14.7,0-14.7L11,1.4L0.1,6.7V11.7z"/>
	<path class="st3" d="M1.2,13.2L1.2,13.2c0.5,0,0.9-0.4,0.9-0.9V6.7L11,2.5l8.9,4.3v1.4H19V7.3l-8-3.8c0,0-8,3.8-8,3.8
		c0,0,0,3.5,0,5.4c0,0.7,0.5,1.2,1.1,1.4L17.1,17v1.5H4.9v-0.9c0-0.5-0.4-0.9-0.9-0.9H1.2c-0.5,0-0.9,0.4-0.9,0.9v4
		c0,0.9,0.7,1.5,1.5,1.5h18.4c0.9,0,1.6-0.7,1.6-1.6v-7c0-0.7-0.5-1.3-1.2-1.5L7,10c-0.5-0.1-1,0.2-1.1,0.8v0
		c-0.1,0.5,0.2,1,0.7,1.1l13.3,2.9v6.6H2.1v-2.8h0.9v1.8h16v-4.8L4.9,12.4V8.5L11,5.6l6.1,2.9l0,0.7c0.1,0.5,0.5,0.8,0.9,0.7l2.9,0
		c0.5,0,0.8-0.4,0.8-0.9V6.6c0-0.6-0.4-1.2-1-1.5l-9.1-4.4c-0.4-0.2-0.9-0.2-1.4,0L1.1,5.2C0.6,5.4,0.3,5.9,0.3,6.5v5.8
		C0.3,12.8,0.7,13.2,1.2,13.2z"/>
</g>
</svg>
