<?xml version="1.0" encoding="utf-8"?>
<!-- Generator: Adobe Illustrator 24.1.1, SVG Export Plug-In . SVG Version: 6.00 Build 0)  -->
<svg version="1.1" id="Layer_1" xmlns="http://www.w3.org/2000/svg" xmlns:xlink="http://www.w3.org/1999/xlink" x="0px" y="0px"
	 viewBox="0 0 166.1 30" style="enable-background:new 0 0 166.1 30;" xml:space="preserve">
<style type="text/css">
	.st0{display:none;fill:#736357;stroke:#000000;stroke-width:0.25;stroke-miterlimit:10;}
	.st1{fill:none;}
	.st2{fill:#736357;stroke:#000000;stroke-width:0.2;stroke-miterlimit:10;}
	.st3{fill:#FFFFFF;stroke:#000000;stroke-width:0.5;stroke-miterlimit:10;}
	.st4{fill:#FFFFFF;}
</style>
<g>
	<path class="st0" d="M-8.7,16.3v9.7c0,0,21.8,0.3,21.8,0s0-14.7,0-14.7L2.2,5.9l-10.9,5.4V16.3z"/>
	<g>
		<g>
			<rect x="15.4" y="8.8" class="st1" width="162.4" height="35.3"/>
			<path class="st2" d="M41.8,29.4h-2.2v-8.1c0-2.9-1.1-4.4-3.3-4.4c-1.1,0-2,0.4-2.8,1.3c-0.7,0.8-1.1,1.9-1.1,3.2v7.9h-2.2V8.7
				h2.2v9.1h0.1c1.1-1.8,2.6-2.7,4.6-2.7c3.2,0,4.7,1.9,4.7,5.7V29.4z"/>
			<path class="st2" d="M55.9,23H46c0,1.6,0.5,2.8,1.3,3.6c0.8,0.8,1.9,1.3,3.3,1.3c1.6,0,3-0.5,4.3-1.6v2.1
				c-1.2,0.9-2.9,1.3-4.9,1.3c-2,0-3.5-0.6-4.7-1.9c-1.1-1.3-1.7-3.1-1.7-5.4c0-2.2,0.6-4,1.9-5.3c1.2-1.4,2.8-2.1,4.6-2.1
				s3.2,0.6,4.3,1.8c1,1.2,1.5,2.8,1.5,4.9V23z M53.6,21.1c0-1.3-0.3-2.3-0.9-3c-0.6-0.7-1.5-1.1-2.6-1.1c-1.1,0-2,0.4-2.7,1.1
				c-0.7,0.8-1.2,1.7-1.4,3H53.6z"/>
			<path class="st2" d="M69.9,29.4h-2.2v-2.4h-0.1c-1,1.8-2.6,2.7-4.8,2.7c-1.8,0-3.2-0.6-4.2-1.9c-1.1-1.3-1.6-3-1.6-5.1
				c0-2.3,0.6-4.2,1.8-5.6c1.2-1.4,2.7-2.1,4.7-2.1c1.9,0,3.3,0.8,4.2,2.3h0.1V8.7h2.2V29.4z M67.6,23.1V21c0-1.1-0.4-2.1-1.1-2.9
				c-0.7-0.8-1.7-1.2-2.8-1.2c-1.4,0-2.4,0.5-3.2,1.5c-0.8,1-1.2,2.4-1.2,4.2c0,1.6,0.4,2.9,1.1,3.8c0.8,0.9,1.8,1.4,3,1.4
				c1.2,0,2.3-0.5,3-1.4S67.6,24.5,67.6,23.1z"/>
			<path class="st2" d="M85.1,29.8c-2.1,0-3.7-0.7-5-2c-1.2-1.3-1.9-3-1.9-5.2c0-2.4,0.6-4.2,1.9-5.5c1.3-1.3,3-2,5.2-2
				c2.1,0,3.7,0.6,4.9,1.9c1.2,1.3,1.8,3.1,1.8,5.3c0,2.2-0.6,4-1.9,5.4C88.9,29.1,87.2,29.8,85.1,29.8z M85.3,17
				c-1.4,0-2.6,0.5-3.4,1.5c-0.8,1-1.3,2.3-1.3,4.1c0,1.7,0.4,3,1.3,3.9c0.8,1,2,1.4,3.4,1.4c1.4,0,2.6-0.5,3.3-1.4
				c0.8-0.9,1.2-2.3,1.2-4c0-1.8-0.4-3.1-1.2-4C87.8,17.5,86.7,17,85.3,17z"/>
			<path class="st2" d="M100.7,10.7c-0.4-0.2-0.9-0.4-1.5-0.4c-1.6,0-2.4,1-2.4,3v2.2h3.3v1.9h-3.3v12.1h-2.2V17.4h-2.4v-1.9h2.4
				v-2.3c0-1.5,0.4-2.6,1.3-3.5c0.8-0.9,1.9-1.3,3.2-1.3c0.7,0,1.2,0.1,1.6,0.2V10.7z"/>
			<path class="st2" d="M119,29.4h-3.1l-6.2-6.7h-0.1v6.7h-2.2V8.7h2.2v13.1h0.1l5.9-6.4h2.9l-6.5,6.8L119,29.4z"/>
			<path class="st2" d="M131.5,29.4h-2.2v-8c0-3-1.1-4.5-3.3-4.5c-1.1,0-2,0.4-2.8,1.3c-0.7,0.8-1.1,1.9-1.1,3.2v8h-2.2v-14h2.2v2.3
				h0.1c1.1-1.8,2.6-2.7,4.6-2.7c1.5,0,2.7,0.5,3.5,1.5c0.8,1,1.2,2.4,1.2,4.3V29.4z"/>
			<path class="st2" d="M140.2,29.8c-2.1,0-3.7-0.7-5-2c-1.2-1.3-1.9-3-1.9-5.2c0-2.4,0.6-4.2,1.9-5.5c1.3-1.3,3-2,5.2-2
				c2.1,0,3.7,0.6,4.9,1.9c1.2,1.3,1.8,3.1,1.8,5.3c0,2.2-0.6,4-1.9,5.4C144,29.1,142.3,29.8,140.2,29.8z M140.4,17
				c-1.4,0-2.6,0.5-3.4,1.5c-0.8,1-1.3,2.3-1.3,4.1c0,1.7,0.4,3,1.3,3.9s2,1.4,3.4,1.4c1.4,0,2.6-0.5,3.3-1.4c0.8-0.9,1.2-2.3,1.2-4
				c0-1.8-0.4-3.1-1.2-4C142.9,17.5,141.8,17,140.4,17z"/>
			<path class="st2" d="M155.9,29.3c-0.5,0.3-1.2,0.4-2.1,0.4c-2.5,0-3.7-1.4-3.7-4.1v-8.3h-2.4v-1.9h2.4V12l2.2-0.7v4.1h3.5v1.9
				h-3.5v7.9c0,0.9,0.2,1.6,0.5,2c0.3,0.4,0.8,0.6,1.6,0.6c0.6,0,1.1-0.2,1.5-0.5V29.3z"/>
			<path class="st2" d="M156.6,28.9v-2.4c1.2,0.9,2.6,1.4,4,1.4c2,0,3-0.7,3-2c0-0.4-0.1-0.7-0.3-1s-0.4-0.5-0.7-0.7
				c-0.3-0.2-0.6-0.4-1-0.5c-0.4-0.2-0.8-0.3-1.3-0.5c-0.6-0.2-1.2-0.5-1.6-0.7c-0.5-0.3-0.9-0.5-1.2-0.8s-0.6-0.7-0.7-1.1
				c-0.2-0.4-0.2-0.9-0.2-1.4c0-0.7,0.2-1.2,0.5-1.7s0.7-0.9,1.2-1.3s1.1-0.6,1.7-0.8c0.6-0.2,1.3-0.3,2-0.3c1.2,0,2.3,0.2,3.3,0.6
				V18c-1-0.7-2.2-1-3.6-1c-0.4,0-0.8,0-1.1,0.1s-0.6,0.2-0.9,0.4c-0.2,0.2-0.4,0.4-0.6,0.6c-0.1,0.2-0.2,0.5-0.2,0.8
				c0,0.4,0.1,0.7,0.2,0.9s0.3,0.5,0.6,0.7s0.6,0.4,0.9,0.5c0.4,0.2,0.8,0.3,1.2,0.5c0.6,0.2,1.2,0.5,1.7,0.7
				c0.5,0.3,0.9,0.5,1.3,0.8s0.6,0.7,0.8,1.1s0.3,0.9,0.3,1.5c0,0.7-0.2,1.3-0.5,1.8c-0.3,0.5-0.7,0.9-1.2,1.3
				c-0.5,0.3-1.1,0.6-1.8,0.8s-1.4,0.2-2.1,0.2C158.9,29.8,157.7,29.5,156.6,28.9z"/>
		</g>
		<path class="st0" d="M5.5,18.3v9.7c0,0,21.8,0.3,21.8,0s0-14.7,0-14.7L16.4,7.9L5.5,13.3V18.3z"/>
		<path class="st3" d="M1.5,20.2L1.5,20.2c0.7,0,1.2-0.5,1.2-1.2V8.3l11.6-5.6l11.6,5.5v3.6h-1.2V9l-10.4-5c0,0-10.4,5-10.4,5
			c0,0,0,4.6,0,7c0,0.9,0.6,1.6,1.5,1.8l16.9,3.8v1.9H6.3v-1.2c0-0.6-0.5-1.2-1.2-1.2H1.4c-0.6,0-1.2,0.5-1.2,1.2v5.2
			c0,1.1,0.9,2,2,2h24c1.1,0,2.1-0.9,2.1-2.1v-9.2c0-0.9-0.6-1.7-1.6-1.9L9.1,12.6c-0.7-0.2-1.4,0.3-1.5,1l0,0
			c-0.1,0.6,0.3,1.2,0.9,1.4l17.3,3.8v8.6H2.7v-3.6h1.2V26h20.8v-6.3l-18.4-4v-5.1l8-3.8l8,3.8l0,2.7c0.1,0.6,0.6,1,1.2,0.9l3.7,0
			c0.6,0,1.1-0.5,1.1-1.1v-5c0-0.8-0.5-1.6-1.2-2L15.2,0.5c-0.6-0.3-1.2-0.3-1.8,0L1.3,6.3C0.7,6.6,0.3,7.3,0.3,8v11
			C0.3,19.6,0.8,20.2,1.5,20.2z"/>
	</g>
</g>
</svg>
